<svg width="104" height="23" viewBox="0 0 104 23" fill="none" xmlns="http://www.w3.org/2000/svg">
<path d="M8.384 18.216C6.752 18.216 5.32 17.864 4.088 17.16C2.872 16.456 1.936 15.448 1.28 14.136C0.624 12.824 0.296 11.288 0.296 9.528C0.296 7.768 0.624 6.24 1.28 4.944C1.936 3.632 2.872 2.624 4.088 1.92C5.32 1.216 6.752 0.863999 8.384 0.863999C9.44 0.863999 10.432 1.024 11.36 1.344C12.288 1.648 13.112 2.096 13.832 2.688C14.04 2.848 14.184 3.016 14.264 3.192C14.344 3.368 14.384 3.584 14.384 3.84C14.384 4.192 14.288 4.488 14.096 4.728C13.904 4.968 13.672 5.088 13.4 5.088C13.08 5.088 12.752 4.976 12.416 4.752C11.728 4.24 11.088 3.888 10.496 3.696C9.904 3.488 9.248 3.384 8.528 3.384C6.864 3.384 5.6 3.904 4.736 4.944C3.888 5.984 3.464 7.512 3.464 9.528C3.464 11.56 3.888 13.096 4.736 14.136C5.6 15.176 6.864 15.696 8.528 15.696C9.216 15.696 9.848 15.592 10.424 15.384C11.016 15.176 11.68 14.824 12.416 14.328C12.576 14.232 12.736 14.152 12.896 14.088C13.056 14.024 13.224 13.992 13.4 13.992C13.672 13.992 13.904 14.112 14.096 14.352C14.288 14.592 14.384 14.888 14.384 15.24C14.384 15.48 14.344 15.696 14.264 15.888C14.184 16.064 14.04 16.232 13.832 16.392C13.112 16.984 12.288 17.44 11.36 17.76C10.432 18.064 9.44 18.216 8.384 18.216ZM21.9433 18.192C20.7433 18.192 19.6873 17.944 18.7753 17.448C17.8793 16.952 17.1833 16.24 16.6873 15.312C16.1913 14.384 15.9433 13.304 15.9433 12.072C15.9433 10.84 16.1913 9.768 16.6873 8.856C17.1833 7.928 17.8793 7.216 18.7753 6.72C19.6873 6.224 20.7433 5.976 21.9433 5.976C23.1433 5.976 24.1913 6.224 25.0873 6.72C25.9993 7.216 26.6953 7.928 27.1753 8.856C27.6713 9.768 27.9193 10.84 27.9193 12.072C27.9193 13.304 27.6713 14.384 27.1753 15.312C26.6953 16.24 25.9993 16.952 25.0873 17.448C24.1913 17.944 23.1433 18.192 21.9433 18.192ZM21.9193 15.864C22.8953 15.864 23.6393 15.544 24.1513 14.904C24.6633 14.264 24.9193 13.32 24.9193 12.072C24.9193 10.84 24.6633 9.904 24.1513 9.264C23.6393 8.608 22.9033 8.28 21.9433 8.28C20.9833 8.28 20.2393 8.608 19.7113 9.264C19.1993 9.904 18.9433 10.84 18.9433 12.072C18.9433 13.32 19.1993 14.264 19.7113 14.904C20.2233 15.544 20.9593 15.864 21.9193 15.864ZM44.3399 5.976C45.6199 5.976 46.5959 6.36 47.2679 7.128C47.9559 7.88 48.2999 9.104 48.2999 10.8V16.704C48.2999 17.168 48.1559 17.528 47.8679 17.784C47.5959 18.024 47.2359 18.144 46.7879 18.144C46.3559 18.144 45.9959 18.024 45.7079 17.784C45.4359 17.528 45.2999 17.168 45.2999 16.704V10.8C45.2999 9.92 45.1399 9.296 44.8199 8.928C44.5159 8.544 44.0439 8.352 43.4039 8.352C42.6199 8.352 41.9959 8.624 41.5319 9.168C41.0679 9.696 40.8359 10.424 40.8359 11.352V16.704C40.8359 17.168 40.6919 17.528 40.4039 17.784C40.1319 18.024 39.7799 18.144 39.3479 18.144C38.9159 18.144 38.5559 18.024 38.2679 17.784C37.9799 17.528 37.8359 17.168 37.8359 16.704V10.8C37.8359 9.92 37.6759 9.296 37.3559 8.928C37.0519 8.544 36.5799 8.352 35.9399 8.352C35.1559 8.352 34.5319 8.624 34.0679 9.168C33.6199 9.696 33.3959 10.424 33.3959 11.352V16.704C33.3959 17.168 33.2519 17.528 32.9639 17.784C32.6759 18.024 32.3159 18.144 31.8839 18.144C31.4519 18.144 31.0919 18.024 30.8039 17.784C30.5319 17.528 30.3959 17.168 30.3959 16.704V7.416C30.3959 6.968 30.5399 6.624 30.8279 6.384C31.1159 6.144 31.4759 6.024 31.9079 6.024C32.3239 6.024 32.6599 6.144 32.9159 6.384C33.1879 6.608 33.3239 6.936 33.3239 7.368V7.944C33.6919 7.304 34.1799 6.816 34.7879 6.48C35.4119 6.144 36.1239 5.976 36.9239 5.976C38.6839 5.976 39.8599 6.712 40.4519 8.184C40.8039 7.512 41.3239 6.976 42.0119 6.576C42.6999 6.176 43.4759 5.976 44.3399 5.976ZM58.0931 5.976C59.1011 5.976 59.9971 6.232 60.7811 6.744C61.5811 7.256 62.1971 7.984 62.6291 8.928C63.0771 9.856 63.3011 10.928 63.3011 12.144C63.3011 13.36 63.0771 14.424 62.6291 15.336C62.1971 16.248 61.5891 16.952 60.8051 17.448C60.0211 17.944 59.1171 18.192 58.0931 18.192C57.2611 18.192 56.5171 18.016 55.8611 17.664C55.2051 17.312 54.7011 16.824 54.3491 16.2V21.096C54.3491 21.512 54.2131 21.84 53.9411 22.08C53.6691 22.32 53.3091 22.44 52.8611 22.44C52.4131 22.44 52.0451 22.312 51.7571 22.056C51.4851 21.8 51.3491 21.464 51.3491 21.048V7.44C51.3491 7.008 51.4771 6.664 51.7331 6.408C52.0051 6.152 52.3651 6.024 52.8131 6.024C53.2611 6.024 53.6211 6.152 53.8931 6.408C54.1651 6.664 54.3011 7.008 54.3011 7.44V8.04C54.6531 7.384 55.1571 6.88 55.8131 6.528C56.4851 6.16 57.2451 5.976 58.0931 5.976ZM57.3011 15.864C58.2451 15.864 58.9811 15.544 59.5091 14.904C60.0371 14.248 60.3011 13.328 60.3011 12.144C60.3011 10.928 60.0371 9.984 59.5091 9.312C58.9811 8.64 58.2451 8.304 57.3011 8.304C56.3411 8.304 55.5971 8.632 55.0691 9.288C54.5571 9.944 54.3011 10.88 54.3011 12.096C54.3011 13.296 54.5571 14.224 55.0691 14.88C55.5971 15.536 56.3411 15.864 57.3011 15.864ZM70.8511 5.976C72.4831 5.976 73.6911 6.384 74.4751 7.2C75.2751 8 75.6751 9.224 75.6751 10.872V16.728C75.6751 17.16 75.5471 17.504 75.2911 17.76C75.0351 18 74.6831 18.12 74.2351 18.12C73.8191 18.12 73.4751 17.992 73.2031 17.736C72.9471 17.48 72.8191 17.144 72.8191 16.728V16.2C72.5471 16.824 72.1151 17.312 71.5231 17.664C70.9471 18.016 70.2751 18.192 69.5071 18.192C68.7231 18.192 68.0111 18.032 67.3711 17.712C66.7311 17.392 66.2271 16.952 65.8591 16.392C65.4911 15.832 65.3071 15.208 65.3071 14.52C65.3071 13.656 65.5231 12.976 65.9551 12.48C66.4031 11.984 67.1231 11.624 68.1151 11.4C69.1071 11.176 70.4751 11.064 72.2191 11.064H72.8191V10.512C72.8191 9.728 72.6511 9.16 72.3151 8.808C71.9791 8.44 71.4351 8.256 70.6831 8.256C70.2191 8.256 69.7471 8.328 69.2671 8.472C68.7871 8.6 68.2191 8.792 67.5631 9.048C67.1471 9.256 66.8431 9.36 66.6511 9.36C66.3631 9.36 66.1231 9.256 65.9311 9.048C65.7551 8.84 65.6671 8.568 65.6671 8.232C65.6671 7.96 65.7311 7.728 65.8591 7.536C66.0031 7.328 66.2351 7.136 66.5551 6.96C67.1151 6.656 67.7791 6.416 68.5471 6.24C69.3311 6.064 70.0991 5.976 70.8511 5.976ZM70.1071 16.032C70.9071 16.032 71.5551 15.768 72.0511 15.24C72.5631 14.696 72.8191 14 72.8191 13.152V12.648H72.3871C71.3151 12.648 70.4831 12.696 69.8911 12.792C69.2991 12.888 68.8751 13.056 68.6191 13.296C68.3631 13.536 68.2351 13.864 68.2351 14.28C68.2351 14.792 68.4111 15.216 68.7631 15.552C69.1311 15.872 69.5791 16.032 70.1071 16.032ZM85.5401 5.976C86.9481 5.976 87.9961 6.376 88.6841 7.176C89.3721 7.976 89.7161 9.184 89.7161 10.8V16.704C89.7161 17.152 89.5801 17.504 89.3081 17.76C89.0521 18.016 88.6921 18.144 88.2281 18.144C87.7641 18.144 87.3961 18.016 87.1241 17.76C86.8521 17.504 86.7161 17.152 86.7161 16.704V10.968C86.7161 10.056 86.5401 9.392 86.1881 8.976C85.8521 8.56 85.3161 8.352 84.5801 8.352C83.7161 8.352 83.0201 8.624 82.4921 9.168C81.9801 9.712 81.7241 10.44 81.7241 11.352V16.704C81.7241 17.152 81.5881 17.504 81.3161 17.76C81.0441 18.016 80.6761 18.144 80.2121 18.144C79.7481 18.144 79.3801 18.016 79.1081 17.76C78.8521 17.504 78.7241 17.152 78.7241 16.704V7.416C78.7241 7 78.8601 6.664 79.1321 6.408C79.4041 6.152 79.7721 6.024 80.2361 6.024C80.6521 6.024 80.9881 6.152 81.2441 6.408C81.5161 6.648 81.6521 6.968 81.6521 7.368V8.016C82.0521 7.36 82.5881 6.856 83.2601 6.504C83.9321 6.152 84.6921 5.976 85.5401 5.976ZM100.947 6.888C101.075 6.6 101.243 6.392 101.451 6.264C101.675 6.12 101.915 6.048 102.171 6.048C102.539 6.048 102.867 6.176 103.155 6.432C103.459 6.672 103.611 6.976 103.611 7.344C103.611 7.52 103.563 7.704 103.467 7.896L96.9151 21.624C96.6431 22.168 96.2191 22.44 95.6431 22.44C95.2751 22.44 94.9471 22.32 94.6591 22.08C94.3871 21.856 94.2511 21.568 94.2511 21.216C94.2511 21.04 94.2991 20.84 94.3951 20.616L96.0271 17.184L91.5631 7.896C91.4831 7.736 91.4431 7.552 91.4431 7.344C91.4431 6.976 91.5951 6.664 91.8991 6.408C92.2191 6.152 92.5791 6.024 92.9791 6.024C93.2511 6.024 93.4991 6.096 93.7231 6.24C93.9471 6.368 94.1231 6.576 94.2511 6.864L97.6111 14.28L100.947 6.888Z" fill="#0075FF"/>
</svg>
